<?xml version="1.0" encoding="UTF-8"?>
<svg width="228px" height="123px" viewBox="0 0 228 123" version="1.1" xmlns="http://www.w3.org/2000/svg" xmlns:xlink="http://www.w3.org/1999/xlink">
    <!-- Generator: Sketch 51.3 (57544) - http://www.bohemiancoding.com/sketch -->
    <title>Path 2</title>
    <desc>Created with Sketch.</desc>
    <defs></defs>
    <g id="Page-1" stroke="none" stroke-width="1" fill="none" fill-rule="evenodd">
        <g id="Desktop-HD" transform="translate(-606.000000, -113.000000)" fill-rule="nonzero" stroke="#E5E7E4" stroke-width="28">
            <path d="M604.691708,143.506223 C621.524471,143.506223 638.450104,145.603855 655.189999,143.506223 C739.960612,132.883841 650.637167,130.224382 735.108415,125.10904 C760.601847,123.565229 786.220271,123.052173 811.688017,125.10904 C814.170922,125.309568 815.744889,128.960743 816.686089,131.697546 C818.246204,136.234016 817.222279,143.180298 811.774278,143.301274 C797.401587,143.620429 673.112835,123.033854 632.670765,158.756838 C630.562689,160.618927 624.950629,164.880155 627.464651,165.785381 C638.135192,169.627535 649.663503,168.692778 660.812196,168.889755 C708.259037,169.728057 755.741892,167.041224 803.16846,168.889755 C805.731069,168.989638 807.826672,172.044375 809.125554,174.670522 C810.735699,177.925997 811.293973,181.882685 811.459679,185.653375 C811.523921,187.115231 810.833409,188.805752 809.780123,189.565489 C807.268778,191.376928 804.351031,192.606143 801.42294,192.892896 C754.670972,197.471405 796.907476,187.918723 739.122095,185.61118 C701.303542,184.100972 663.379402,184.201207 625.607499,186.895125 C623.673269,187.033075 624.073206,191.69476 624.937707,193.754887 C625.772378,195.74393 627.974056,196.942328 629.844444,196.991875 C654.524619,197.645669 679.257989,194.033979 703.897102,195.846572 C722.165136,197.190473 740.267553,201.42141 758.079251,206.425556 C766.392398,208.761111 773.937771,213.976519 781.867031,217.752" id="Path-2" transform="translate(711.020185, 170.752000) rotate(5.000000) translate(-711.020185, -170.752000) "></path>
        </g>
    </g>
</svg>