<svg xmlns="http://www.w3.org/2000/svg" viewBox="0 0 53.18 18.45"><defs><style>.cls-1{fill:none;}.cls-1,.cls-2{stroke:#079e27;stroke-miterlimit:10;}.cls-2,.cls-3{fill:#079e27;}</style></defs><title>Asset 4</title><g id="Layer_2" data-name="Layer 2"><g id="Layer_1-2" data-name="Layer 1"><path class="cls-1" d="M46.3,11.69l-8.37,4.09-.45-1,1.19-2.85-1.19-2.7,1.19-2.93-1.19-2.7.43-.93L46.2,6.33A3.49,3.49,0,0,0,44.88,9,3.49,3.49,0,0,0,46.3,11.69Z"/><path class="cls-2" d="M52,8.91l-5.7,2.78A3.49,3.49,0,0,1,44.88,9,3.49,3.49,0,0,1,46.2,6.33Z"/><path class="cls-3" d="M2.52,1h35l-.77,1.44-.44.81,1.21,2.37H1V2.34L2.52,1m0-1L1.86.25.34,1.59,0,2.34V5.62l1,1H37.52l.89-1.46-1-1.9.19-.35.77-1.44L37.52,0Z"/><path class="cls-3" d="M1,6.63H37.37L36.16,9.07l1.21,2.56H1v-5m0-1-1,1v5l1,1H37.37l.9-1.43-1-2.12,1-2-.89-1.44H1Z"/><path class="cls-3" d="M1,12.63H37.37L36.16,15l.46.94.74,1.52H2.65L1,15.88V12.63m0-1-1,1v3.25l.31.73L2,18.17l.68.27H37.36l.9-1.44-.74-1.52L37.28,15l1-1.91-.89-1.45H1Z"/></g></g></svg>