<svg xmlns="http://www.w3.org/2000/svg" viewBox="0 0 338.12 113.82"><defs><style>.cls-1{fill:none;}.cls-1,.cls-2{stroke:#079e27;stroke-miterlimit:10;stroke-width:2px;}.cls-2,.cls-3{fill:#079e27;}</style></defs><title>Asset 2</title><g id="Layer_2" data-name="Layer 2"><g id="Layer_1-2" data-name="Layer 1"><path class="cls-1" d="M297.72,73.37l-55.88,27.31-3-6.86,7.92-19-7.91-18,7.92-19.58-7.91-18L241.72,13,297,37.57c-5.44,4.62-8.75,10.81-8.76,17.6C288.25,62.26,291.86,68.68,297.72,73.37Z"/><path class="cls-2" d="M335.75,54.77l-38,18.6c-5.86-4.69-9.47-11.11-9.47-18.2,0-6.79,3.32-13,8.76-17.6Z"/><path class="cls-3" d="M12.17,2l233.6.08-5.16,11-2.93,6.21,8.08,18-48.87,0L2,37.16v-25L12.17,2m0-2L10.75.59.59,10.78,0,12.19v25l2,2,194.88.06,48.88,0,1.82-2.82-7.69-17.16,2.53-5.38,5.16-11L245.77.08,12.17,0Z"/><path class="cls-3" d="M2,39.58l191.91.06,50.84,0-8,17.16,8,18-61.91,0L2,74.74V39.58m0-2-2,2V74.74l2,2,180.84.06,61.91,0L246.58,74l-7.67-17.16,7.66-16.33-1.81-2.85-50.84,0L2,37.58Z"/><path class="cls-3" d="M2,76.58l183.08.06,59.66,0L236.7,93.82l3.06,6.86,5,11.14L13,111.74,2,100.36V76.58m0-2-2,2v23.78l.56,1.39,11,11.38,1.44.61,231.75.08,1.83-2.82-5-11.14-2.68-6,7.66-16.33-1.81-2.85-59.66,0L2,74.58Z"/></g></g></svg>